# xmcd
#
# Track frame offsets:
#	150
#	17587
#	38657
#	56930
#	85262
#	102132
#	125927
#	145100
#	162445
#	181305
#	200297
#	217752
#	240825
#	264080
#	288785
#	303155
#
# Disc length: 4351 seconds
#
# Revision: 10
# Processed by: cddbd v1.5.2PL0 Copyright (c) Steve Scherf et al.
# Submitted via: audiograbber 1.83.01
#
DISCID=ce10fd10
DTITLE=De Vision - Zehn
DYEAR=1998
DGENRE=Electronic
TTITLE0=Try To Forget (Radio-Forg-Edit)
TTITLE1=Your Hands On My Skin (Album Version)
TTITLE2=Dinner Without Grace (Radio Edit)
TTITLE3=Love Me Again (Failure-Mix)
TTITLE4=Someone To Draw The Sword
TTITLE5=Free From Cares
TTITLE6=Dress When I Bleed (Radio Edit)
TTITLE7=Get Over The Wall
TTITLE8=Sweet Life (Radio Edit)
TTITLE9=Like The Sun
TTITLE10=I Regret (Radio Edit)
TTITLE11=Your Hands On My Skin '98
TTITLE12=Dinner Without Grace '98
TTITLE13=Try To Forget '98
TTITLE14=Moments We Shared (Live '98)
TTITLE15=I Regret (Live '98)
EXTD=
EXTT0=
EXTT1=
EXTT2=
EXTT3=
EXTT4=
EXTT5=
EXTT6=
EXTT7=
EXTT8=
EXTT9=
EXTT10=
EXTT11=
EXTT12=
EXTT13=
EXTT14=
EXTT15=
PLAYORDER=
